<svg xmlns="http://www.w3.org/2000/svg" xmlns:xlink="http://www.w3.org/1999/xlink" id="Capa_1" x="0" y="0" version="1.1" viewBox="0 0 22.1 16.8" style="enable-background:new 0 0 22.1 16.8" xml:space="preserve"><style type="text/css">.st0{fill:#fff}</style><g><g><path d="M20.1,0H2C0.9,0,0,0.9,0,2v12.9c0,1.1,0.9,1.9,1.9,1.9h18.1c1.1,0,1.9-0.9,1.9-1.9V2C22,0.9,21.2,0,20.1,0z M19.8,1.3l-8.8,8.8L2.2,1.3H19.8z M1.3,14.6V2.2l6.2,6.2L1.3,14.6z M2.2,15.5l6.2-6.2l2.2,2.2c0.3,0.2,0.7,0.2,0.9,0l2.1-2.1 l6.2,6.2H2.2z M20.8,14.6l-6.2-6.2l6.2-6.2V14.6z" class="st0"/></g></g></svg>